<svg version="1.2" xmlns="http://www.w3.org/2000/svg" viewBox="0 0 350 100" width="350" height="100"><defs><clipPath clipPathUnits="userSpaceOnUse" id="cp1"><path d="m128 15h18v20h-18z"/></clipPath><clipPath clipPathUnits="userSpaceOnUse" id="cp2"><path d="m128.47 22.81l9.04-13.33 16.67 11.3-9.04 13.33z"/></clipPath><clipPath clipPathUnits="userSpaceOnUse" id="cp3"><path d="m145.84 15.13l-17.37 7.68 6.67 4.52 3.33 2.26 6.67 4.52z"/></clipPath></defs><style>.a{fill:#fff}</style><path class="a" d="m160.8 46l0.8 10.2-1.3 0.1-0.8-1.5q-1.9-4.1-4.3-6.3-2.5-2.2-4.3-2.5-1.7-0.3-2.3-0.3-4.4 0-5.8 3.6-0.5 1-0.5 2 0 1.9 1.5 3.5 1.4 1.6 4.8 3.3l1.9 1.1 1.1 0.6 3.2 1.5 1.1 0.5 1.7 0.9q7.4 3.8 7.4 9.7 0 0.8-0.3 2.3-0.3 1.6-0.8 2.5-1.6 3.4-5.3 5.3-3.7 2-9.5 2-0.8 0-1.5 0-1.1-0.2-1.6-0.2-1.7 0-3.6-0.5-1.9-0.4-4.6-1.3l-1.5-0.5-0.9-0.4-0.9-0.4v-12.5h1.5q0.3 3.1 1.9 6 3.3 6.3 8.6 7.1 0.7 0.2 1.2 0.2 0.5 0 1 0 3.9 0 5.8-2.3 1.3-1.5 1.3-3.5 0-1.2-0.5-2.3-0.5-1.1-1.2-1.7-0.8-0.7-2.1-1.4l-1.7-1-1-0.4-3.2-1.7-2.9-1.3-1-0.5q-4.5-2.8-6.2-5.4-1.8-2.6-1.8-6.2 0-4.7 3.8-7.8 3.8-3.1 10.4-3.1 3.7 0 7.4 1 1 0.2 2.4 0.7 1.4 0.5 2.6 0.9z"/><path class="a" d="m169.6 83.4v-1.9h1.6l1-0.2 0.4-0.1 0.4-0.2q1-0.4 1.3-1.6 0.3-1.2 0.3-4.3v-23.7l-4.9-1.6v-1.3l3.7-0.7q4.7-1.1 9.3-3.9h1.4v4.7l1-0.7 1.4-0.7q3.2-1.8 6.1-2.7 2.9-0.9 5.6-0.9 6.2 0 10.1 4.6l0.6 0.6 0.4 0.5 0.6-0.5 0.9-0.5q1.6-1.2 3-1.9 1.4-0.7 3.2-1.4 3.7-1.4 7.4-1.4 5.5 0 8.7 3.2 3.3 3.2 3.3 8.3v22.1l0.1 1q0.3 2.1 1.2 2.8l0.4 0.1 0.3 0.2 0.8 0.2h2v1.9h-18.8v-1.9h1.6l0.7-0.2 0.4-0.2 0.4-0.1q1-0.4 1.3-2l0.1-0.8 0.1-1v-0.8-20.6q0-3.5-2-5.6-2.1-2.2-5.5-2.2-2.2 0-4.4 0.8-1.3 0.5-1.9 0.9-1.9 1-2.5 2-0.6 1-0.6 3.1v22.8l0.1 0.6 0.1 0.7q0.3 1.7 1.2 2.1l0.3 0.1 0.4 0.2 0.7 0.2h1.6v1.9h-18.3v-1.9h1.7l0.7-0.2 0.5-0.2 0.2-0.1q0.8-0.4 1.1-1.2 0.4-0.8 0.4-2.6v-20.5q0-4-2-6.4-2-2.3-5.6-2.3-1.9 0-4.1 0.8l-1.8 0.6q-2 1.2-2.7 2.1-0.7 0.8-0.7 2.5v22.4l0.1 1v0.8l0.1 0.7q0.3 1.7 1.3 2.1l0.2 0.1 0.4 0.2 0.8 0.2h1.5v1.9z"/><path class="a" d="m245 49.8l0.1-1.3q7.1-1 12.9-4.6h1.3v33.4 0.9q0 2.1 1.5 2.8l0.4 0.1 0.5 0.2 0.5 0.1 0.3 0.1h1.6v1.9h-19v-1.9h1.5l0.4-0.1 0.5-0.1 0.4-0.2 0.3-0.1q0.9-0.4 1.3-1.3 0.4-0.9 0.4-3.1l0.1-1.4-0.1-18.3v-5.5zm15.2-16.8q-0.5 2-2.2 3.3-1.7 1.4-3.8 1.4-2.6 0-4.3-1.4-1.7-1.3-1.7-3.5 0-2.1 1.7-3.5 1.8-1.4 4.2-1.4 2.3 0 4 1.5 1.7 1.4 2.1 3.6z"/><path class="a" d="m267.1 47.3q7.7-6.8 13.7-14.8l0.7 0.3v11.7h9.7l-1.2 3.3h-8.4v29.7q0 1.5 1.1 2.5 1 1 2.7 1 1.2 0 2.5-0.5l1.4-0.8 0.7-0.4 0.6-0.4 0.6 1.2q-1 1.1-2.2 1.9-1.2 0.8-3.1 1.5l-2.9 0.7q-0.8 0.1-1.7 0.1-0.9 0.1-1.3 0.1-4.3 0-6.1-2.1-1.7-2.2-1.7-7.1v-27.4h-4.8z"/><path class="a" d="m291.3 83.4v-1.9h1.5l0.4-0.1 0.5-0.1 0.4-0.2 0.4-0.1q1.2-0.4 1.5-1.6 0.4-1.1 0.4-5v-45l-4.9-1.6v-1.3q6.9-1 12.9-4.6h1.3v28.1l1.2-0.9q1.2-0.9 2.6-1.8 1.5-0.9 2.6-1.5 2.2-1.2 4.6-1.8 2.3-0.6 4.3-0.6 4.8 0 8.1 2.7 3.2 2.6 3.6 6.7 0.2 0.7 0.2 1.4 0 0.6 0 1.3v21.9l0.1 0.8q0 2.1 1.5 2.8l0.4 0.1 0.4 0.2 0.5 0.1 0.3 0.1h1.6v1.9h-18.8v-1.9h1.7l0.8-0.3 0.4-0.1 0.3-0.1q0.8-0.4 1.1-1.3 0.3-0.8 0.3-2.6l0.1-0.7v-20.1q0-3.7-2-6-2-2.2-5.2-2.2-1.5 0-3.6 0.7-2.1 0.7-3.9 2-1.8 1.4-2.5 2.2-0.7 0.7-0.7 1.1v22.3 1.8 0.5q0.4 1.9 1.3 2.3l0.3 0.1 0.4 0.2 0.7 0.2h1.6v1.9z"/><path class="a" d="m96 82.8l42.4-60.8h4.9l-42.5 60.8z"/><g clip-path="url(#cp1)"><g clip-path="url(#cp2)"><g clip-path="url(#cp3)"><path class="a" d="m128.5 22.8l9-13.3 16.7 11.3-9.1 13.3z"/></g></g></g><path class="a" d="m12.4 32v-1.8h14.2v27.8q0 3.3 2.1 5.5 2.1 2.1 5.4 2.1 1.6 0 3.1-0.5 1.5-0.5 2.5-1.1 1-0.5 2.4-1.6l1-0.9 0.6-0.6 0.7-0.8v-23.8l-0.1-1q-0.3-2.2-1.7-2.8l-0.4-0.2-0.4-0.1h-0.5l-0.4-0.1-1.6-0.1v-1.8h14.5v33.7l4.9 1.6v1.6l-3.4 0.3q-5 0.5-9.8 2.4l-1.2-0.2v-5.9l-0.7 0.7-0.9 0.6-2.9 1.7q-1.1 0.6-1.8 1-0.7 0.3-1.6 0.7-4.1 1.6-7.5 1.6-5.2 0-8.4-3.3-3.2-3.2-3.2-8.4v-22.1l-0.1-1q-0.2-2.1-1.5-2.7l-0.5-0.2-0.3-0.1-0.5-0.1h-0.4z"/><path fill-rule="evenodd" class="a" d="m62.1 82.8v-1.9l1.7-0.1 1-0.2h0.4l0.4-0.2q0.8-0.4 1.2-1.2 0.4-0.8 0.4-2.6v-39.5l-4.9-1.6 0.1-1.3q7.1-1 13-4.6h1.3v5.1l1.1-0.9q2.9-2.3 6.1-3.5 3.2-1.2 6.1-1.2 3.3 0 6 1.2 4.3 1.9 7 6.6 2.7 4.6 2.7 10.6 0 4.9-2.1 10.4-2.1 5.6-6.5 8.8-4.4 3.2-10.1 3.2-2.5 0-4.3-0.3-1.9-0.3-4.4-1.4l-1.5-0.6-0.3-0.2v9.4l0.1 0.9q0 2 1.7 2.7l0.4 0.2h0.5l0.6 0.2h0.3l1.6 0.1v1.9zm14.4-24.4q0 3.9 2.3 6.4 2.4 2.5 6.1 2.5 4.5 0 7.2-3.3 3.2-3.7 3.2-10.8 0-1.9 0-2.8 0-2-0.1-3.5-0.1-1.6-0.4-3.3-1-4.9-3.7-7.5-2.6-2.7-6.1-2.7-2.7 0-5.5 1.7-1.4 0.8-2 1.4-0.7 0.6-0.9 1.3l-0.1 2z"/></svg>