<svg version="1.2" xmlns="http://www.w3.org/2000/svg" viewBox="0 0 250 200" width="250" height="200"><defs><clipPath clipPathUnits="userSpaceOnUse" id="cp1"><path d="m166 21h40v44h-40z"/></clipPath><clipPath clipPathUnits="userSpaceOnUse" id="cp2"><path d="m166.18 38.93l20.44-30.14 37.57 25.47-20.44 30.14z"/></clipPath><clipPath clipPathUnits="userSpaceOnUse" id="cp3"><path d="m205.41 21.52l-39.17 17.32 15.03 10.19-0.06 0.09 7.51 5.09 0.06-0.08 15.03 10.19z"/></clipPath></defs><style>.a{fill:#fff}</style><path class="a" d="m228.2 91.2l1.9 22.9-3 0.2-1.7-3.4q-4.3-9.3-9.8-14.2-5.5-5-9.5-5.6-4-0.7-5.3-0.7-9.9 0-13.1 8-0.9 2.5-0.9 4.7 0 4.1 3.2 7.8 3.1 3.6 10.8 7.5l4.3 2.4 2.6 1.3 7.1 3.4 2.4 1.1 3.9 2.1q16.6 8.6 16.6 21.8 0 1.7-0.6 5.2-0.7 3.6-2 5.6-3.5 7.5-11.8 11.9-8.3 4.4-21.4 4.4-1.7 0-3.4 0-2.4-0.4-3.5-0.4-3.9 0-8.1-1-4.2-1-10.4-3.1l-3.3-1.1-2.1-1-2-0.7v-28.2h3.3q0.8 7.1 4.3 13.5 7.5 14.1 19.4 16 1.5 0.4 2.6 0.4 1.2 0 2.5 0 8.7 0 12.8-5.1 3-3.5 3-8 0-2.6-1.1-5-1.1-2.5-2.8-3.9-1.7-1.5-4.7-3.2l-3.7-2.1-2.2-1.1-7.3-3.7-6.5-3-2.3-1.1q-10.1-6.2-14-12.1-3.9-5.8-3.9-13.9 0-10.6 8.6-17.5 8.6-6.9 23.3-6.9 8.4 0 16.6 2 2.3 0.6 5.4 1.7 3.2 1.1 5.8 2.1z"/><path class="a" d="m93.4 173.9l95.1-136.6h11.1l-95.4 136.6z"/><g clip-path="url(#cp1)"><g clip-path="url(#cp2)"><g clip-path="url(#cp3)"><path class="a" d="m166.2 38.9l20.4-30.1 37.6 25.5-20.4 30.1z"/></g></g></g><path class="a" d="m12.9 37.7v-4.2h31.9v62.6q0 7.4 4.7 12.3 4.7 4.8 12.1 4.8 3.8 0 7-1.1 3.3-1.1 5.6-2.4 2.4-1.3 5.4-3.7l2.4-2.1 1.3-1.3 1.5-1.7v-53.5l-0.2-2.3q-0.6-5-3.7-6.3l-1-0.4-0.9-0.2-1.1-0.2-1-0.2-3.5-0.1v-4.2h32.5v75.8l11.2 3.8v3.5l-7.9 0.6q-11.2 1.1-21.8 5.4l-2.8-0.4v-13.3l-1.7 1.5-1.8 1.3-6.6 4q-2.4 1.3-4 2.1-1.6 0.9-3.6 1.6-9.2 3.7-16.8 3.7-11.8 0-19-7.3-7.2-7.4-7.2-19v-49.6l-0.1-2.3q-0.6-4.8-3.6-6.1l-0.9-0.4-0.8-0.4-1.1-0.2h-0.9z"/></svg>